# xmcd CD database file generated by Grip 3.0.7
# 
# Track frame offsets:
#       150
#       13237
#       28035
#       41395
#       56375
#       66607
#       80302
#       94530
#       107825
#       120650
#       135280
#       149555
#       162892
#       177975
#       192480
#       206075
#       219652
#       233480
# 
# Disc length: 3300 seconds
# 
# Revision: 4
# Processed by: cddbd v1.5.1PL0 Copyright (c) Steve Scherf et al.
# Submitted via: Grip 3.0.7
# 
DISCID=fd0ce212
DTITLE=Billie Holiday - The Quintessential Billie Holiday: Volume 9 (1940-194
DTITLE=2)
DYEAR=1991
DGENRE=Jazz
TTITLE0=St. Louis Blues
TTITLE1=Loveless Love
TTITLE2=Let's Do It
TTITLE3=Georgia on My Mind
TTITLE4=Romance in the Dark
TTITLE5=All of Me
TTITLE6=I'm in a Low-Down Groove
TTITLE7=God Bless The Child
TTITLE8=Am I Blue?
TTITLE9=Solitude
TTITLE10=Jim
TTITLE11=I Cover the Waterfront
TTITLE12=Love Me or Leave Me
TTITLE13=Gloomy Sunday
TTITLE14=Wherever You Are
TTITLE15=Mandy Is Two
TTITLE16=It's a Sin to Tell a Lie
TTITLE17=Until the Real Thing Comes Along
EXTD=
EXTT0=
EXTT1=
EXTT2=
EXTT3=
EXTT4=
EXTT5=
EXTT6=
EXTT7=
EXTT8=
EXTT9=
EXTT10=
EXTT11=
EXTT12=
EXTT13=
EXTT14=
EXTT15=
EXTT16=
EXTT17=
PLAYORDER=
